<?xml version="1.0" standalone="no"?><!DOCTYPE svg PUBLIC "-//W3C//DTD SVG 1.1//EN" "http://www.w3.org/Graphics/SVG/1.1/DTD/svg11.dtd"><svg t="1680760776323" class="icon" viewBox="0 0 1024 1024" version="1.1" xmlns="http://www.w3.org/2000/svg" p-id="1544" xmlns:xlink="http://www.w3.org/1999/xlink" width="200" height="200"><path d="M624 624m-288 0a288 288 0 1 0 576 0 288 288 0 1 0-576 0Z" fill="#D2D5E3" p-id="1545"></path><path d="M372.576 171.84L88.192 690.304a70.112 70.112 0 0 0-1.888 61.952c9.056 19.52 26.432 31.68 45.312 31.712h568.768c18.88-0.032 36.256-12.16 45.312-31.68 9.024-19.52 8.32-43.296-1.888-61.984L459.424 171.808C449.92 154.464 433.6 144 416 144c-17.568 0-33.92 10.464-43.424 27.84z" fill="#6C75A4" p-id="1546"></path></svg>